<svg id="svg" version="1.1" width="1000" height="261" xmlns="http://www.w3.org/2000/svg" xmlns:xlink="http://www.w3.org/1999/xlink" style="display: block;"><g id="svgg"><path id="path0" d="M93.900 70.143 C 93.295 71.100,92.800 72.090,92.800 72.342 C 92.800 72.594,92.660 72.800,92.490 72.800 C 92.319 72.800,91.824 73.608,91.390 74.596 C 90.955 75.584,90.486 76.394,90.347 76.396 C 90.207 76.398,89.984 76.715,89.850 77.100 C 89.717 77.485,89.060 78.700,88.391 79.800 C 87.722 80.900,87.055 82.070,86.910 82.400 C 86.764 82.730,86.410 83.238,86.122 83.529 C 85.835 83.819,85.600 84.314,85.600 84.629 C 85.600 84.943,85.240 85.200,84.800 85.200 C 84.320 85.200,84.000 85.467,84.000 85.867 C 84.000 86.233,84.111 86.422,84.248 86.286 C 84.597 85.936,85.439 86.862,85.796 87.988 C 85.962 88.511,86.443 89.309,86.864 89.761 C 87.286 90.214,87.734 90.993,87.859 91.492 C 87.984 91.991,88.207 92.400,88.354 92.400 C 88.501 92.400,88.976 93.208,89.410 94.196 C 89.845 95.184,90.335 95.994,90.500 95.996 C 90.665 95.998,90.800 96.257,90.800 96.571 C 90.800 96.886,91.025 97.381,91.301 97.671 C 91.576 97.962,92.161 98.917,92.601 99.794 C 93.040 100.671,93.626 101.630,93.903 101.925 C 94.179 102.221,94.590 102.808,94.817 103.231 C 95.206 103.959,95.778 104.000,105.580 104.000 L 115.931 104.000 117.166 101.994 C 117.845 100.891,118.400 99.826,118.400 99.627 C 118.400 99.429,118.535 99.207,118.700 99.133 C 118.865 99.060,119.315 98.415,119.700 97.700 C 121.295 94.738,121.830 93.830,122.400 93.121 C 122.730 92.710,123.006 92.245,123.014 92.087 C 123.028 91.805,123.691 90.580,124.684 89.000 C 124.961 88.560,125.301 87.885,125.440 87.500 C 125.579 87.115,125.852 86.800,126.047 86.800 C 126.241 86.800,126.400 86.440,126.400 86.000 C 126.400 85.560,126.248 85.200,126.063 85.200 C 125.878 85.200,125.383 84.525,124.963 83.700 C 124.543 82.875,124.110 82.110,124.000 82.000 C 123.890 81.890,123.485 81.215,123.100 80.500 C 122.715 79.785,122.085 78.615,121.700 77.900 C 121.315 77.185,120.865 76.540,120.700 76.467 C 120.535 76.393,120.400 76.164,120.400 75.957 C 120.400 75.750,119.680 74.440,118.800 73.047 C 117.920 71.654,117.200 70.308,117.200 70.057 C 117.200 69.806,117.020 69.600,116.800 69.600 C 116.580 69.600,116.400 69.330,116.400 69.000 C 116.400 68.482,114.945 68.400,105.700 68.401 L 95.000 68.401 93.900 70.143 M0.584 76.898 C 0.477 77.177,0.436 83.345,0.494 90.603 L 0.600 103.800 14.275 103.905 L 27.949 104.010 28.193 102.305 C 28.327 101.367,28.383 95.200,28.318 88.600 L 28.200 76.600 14.489 76.495 C 3.693 76.412,0.737 76.498,0.584 76.898 " stroke="none" fill="#000000" fill-rule="evenodd"></path><path id="path1" d="M252.828 25.824 C 252.892 26.675,253.478 27.720,253.696 27.369 C 253.824 27.161,253.675 26.644,253.365 26.219 C 253.054 25.795,252.813 25.616,252.828 25.824 M256.400 34.376 C 256.400 34.829,256.580 35.200,256.800 35.200 C 257.020 35.200,257.200 34.941,257.200 34.624 C 257.200 34.307,257.020 33.936,256.800 33.800 C 256.580 33.664,256.400 33.923,256.400 34.376 M156.400 37.000 C 156.400 37.330,156.580 37.600,156.800 37.600 C 157.020 37.600,157.200 37.330,157.200 37.000 C 157.200 36.670,157.020 36.400,156.800 36.400 C 156.580 36.400,156.400 36.670,156.400 37.000 M280.200 47.600 C 280.064 47.820,280.323 48.000,280.776 48.000 C 281.229 48.000,281.600 47.820,281.600 47.600 C 281.600 47.380,281.341 47.200,281.024 47.200 C 280.707 47.200,280.336 47.380,280.200 47.600 M294.800 47.625 C 294.800 47.831,295.160 48.000,295.600 48.000 C 296.040 48.000,296.400 47.858,296.400 47.685 C 296.400 47.512,296.040 47.343,295.600 47.310 C 295.160 47.277,294.800 47.419,294.800 47.625 M277.221 48.682 C 276.701 49.269,276.741 49.308,277.621 49.073 C 278.160 48.929,278.825 48.808,279.100 48.805 C 279.375 48.802,279.600 48.620,279.600 48.400 C 279.600 47.761,277.856 47.968,277.221 48.682 M298.234 48.543 C 298.387 48.943,298.900 49.182,299.543 49.154 C 300.377 49.117,300.431 49.066,299.800 48.911 C 299.360 48.802,298.771 48.528,298.491 48.300 C 298.107 47.989,298.044 48.049,298.234 48.543 M274.982 49.571 C 275.109 49.776,274.804 50.014,274.306 50.101 C 273.478 50.246,273.464 50.288,274.140 50.588 C 274.634 50.807,274.999 50.731,275.234 50.358 C 275.709 49.608,275.689 49.200,275.176 49.200 C 274.943 49.200,274.856 49.367,274.982 49.571 M300.660 49.504 C 300.556 49.671,301.176 50.150,302.036 50.568 C 302.896 50.986,303.600 51.480,303.600 51.664 C 303.600 51.849,303.793 52.000,304.029 52.000 C 304.264 52.000,304.727 52.270,305.057 52.600 C 305.387 52.930,305.863 53.200,306.115 53.200 C 306.367 53.200,306.065 52.795,305.443 52.300 C 304.822 51.805,303.950 51.089,303.505 50.708 C 303.060 50.328,302.539 50.114,302.346 50.234 C 302.152 50.353,301.886 50.169,301.754 49.825 C 301.499 49.159,300.969 49.003,300.660 49.504 M267.493 55.014 C 266.452 56.012,265.600 56.912,265.600 57.014 C 265.600 57.775,267.881 55.968,269.549 53.885 C 270.634 52.530,269.348 53.237,267.493 55.014 M307.600 54.139 C 307.600 54.549,309.120 55.947,309.333 55.733 C 309.472 55.595,309.201 55.148,308.732 54.741 C 307.897 54.017,307.600 53.859,307.600 54.139 M153.566 56.900 C 153.399 57.398,152.321 62.065,152.156 63.000 C 152.040 63.660,151.754 64.593,151.519 65.074 C 151.285 65.554,151.190 66.319,151.309 66.774 C 151.428 67.228,151.362 67.600,151.163 67.600 C 150.963 67.600,150.800 67.872,150.800 68.205 C 150.800 68.538,150.642 69.123,150.449 69.505 C 149.880 70.632,149.251 72.871,148.961 74.800 C 148.812 75.790,148.559 76.780,148.398 77.000 C 148.236 77.220,147.980 78.120,147.828 79.000 C 147.512 80.832,146.860 83.086,146.358 84.083 C 146.170 84.458,145.894 85.538,145.747 86.483 C 145.599 87.427,145.281 88.335,145.039 88.500 C 144.737 88.706,144.787 88.923,145.200 89.194 C 146.032 89.740,146.400 89.696,146.400 89.049 C 146.400 88.746,146.656 88.286,146.968 88.027 C 147.302 87.750,147.475 87.069,147.387 86.378 C 147.305 85.730,147.409 85.200,147.619 85.200 C 147.829 85.200,148.000 84.750,148.000 84.200 C 148.000 83.650,148.174 83.200,148.387 83.200 C 148.601 83.200,148.685 83.515,148.575 83.900 C 148.465 84.285,148.602 84.164,148.880 83.631 C 149.277 82.867,149.280 82.627,148.892 82.497 C 148.302 82.301,148.236 80.949,148.800 80.600 C 149.020 80.464,149.200 79.801,149.200 79.127 C 149.200 78.174,149.314 77.997,149.714 78.329 C 150.123 78.668,150.229 78.301,150.229 76.544 C 150.229 74.677,150.382 74.208,151.214 73.532 C 151.756 73.091,151.966 72.852,151.681 73.001 C 150.716 73.503,151.455 69.920,152.489 69.081 C 153.111 68.575,153.242 68.276,152.900 68.137 C 152.625 68.025,152.400 67.758,152.400 67.543 C 152.400 67.328,152.542 67.240,152.715 67.348 C 152.888 67.455,153.272 66.996,153.568 66.327 C 154.022 65.303,154.019 65.058,153.553 64.762 C 153.154 64.510,153.139 64.411,153.500 64.406 C 153.775 64.403,154.000 64.209,154.000 63.976 C 154.000 63.743,153.844 63.649,153.652 63.768 C 153.461 63.886,153.435 63.491,153.595 62.891 C 154.153 60.792,154.496 60.000,154.847 60.000 C 155.250 60.000,155.320 58.378,154.957 57.433 C 154.761 56.921,153.696 56.513,153.566 56.900 M311.067 57.892 C 310.916 58.136,311.064 58.607,311.396 58.939 C 311.728 59.271,312.000 59.736,312.000 59.971 C 312.000 60.207,312.177 60.400,312.392 60.400 C 312.608 60.400,312.898 60.850,313.036 61.400 C 313.174 61.950,313.447 62.400,313.643 62.400 C 313.840 62.400,314.000 62.760,314.000 63.200 C 314.000 63.640,314.180 64.000,314.400 64.000 C 314.620 64.000,314.814 64.315,314.832 64.700 C 314.855 65.217,314.922 65.252,315.087 64.834 C 315.313 64.262,314.224 61.845,313.301 60.871 C 313.025 60.581,312.800 60.086,312.800 59.771 C 312.800 59.457,312.648 59.200,312.461 59.200 C 312.275 59.200,311.946 58.806,311.732 58.324 C 311.487 57.777,311.238 57.615,311.067 57.892 M264.424 58.779 C 263.931 59.207,263.644 59.747,263.787 59.979 C 263.930 60.210,263.876 60.400,263.666 60.400 C 263.457 60.400,263.186 60.661,263.063 60.980 C 262.914 61.368,263.033 61.485,263.424 61.336 C 263.745 61.212,264.115 60.682,264.247 60.156 C 264.379 59.630,264.628 59.200,264.801 59.200 C 264.973 59.200,265.218 58.930,265.345 58.600 C 265.646 57.815,265.504 57.843,264.424 58.779 M261.625 63.400 C 261.344 64.060,260.953 64.913,260.757 65.295 C 260.282 66.220,260.304 67.200,260.800 67.200 C 261.020 67.200,261.200 66.958,261.200 66.661 C 261.200 66.365,261.483 65.555,261.829 64.861 C 262.175 64.168,262.386 63.285,262.297 62.900 C 262.174 62.364,262.016 62.480,261.625 63.400 M315.200 66.600 C 315.200 67.150,315.380 67.600,315.600 67.600 C 315.820 67.600,316.000 67.150,316.000 66.600 C 316.000 66.050,315.820 65.600,315.600 65.600 C 315.380 65.600,315.200 66.050,315.200 66.600 M256.400 70.024 C 256.400 70.477,256.580 70.736,256.800 70.600 C 257.020 70.464,257.200 70.093,257.200 69.776 C 257.200 69.459,257.020 69.200,256.800 69.200 C 256.580 69.200,256.400 69.571,256.400 70.024 M259.200 71.400 C 259.200 71.950,259.380 72.400,259.600 72.400 C 259.820 72.400,260.000 71.950,260.000 71.400 C 260.000 70.850,259.820 70.400,259.600 70.400 C 259.380 70.400,259.200 70.850,259.200 71.400 M0.000 75.600 C 0.000 75.859,5.000 76.000,14.200 76.000 L 28.400 76.000 28.400 88.800 C 28.400 95.840,28.535 101.600,28.700 101.600 C 29.168 101.601,29.069 75.851,28.600 75.506 C 27.966 75.040,0.000 75.132,0.000 75.600 M253.061 77.687 C 252.761 78.836,252.917 78.945,253.507 78.000 C 253.769 77.581,253.828 77.141,253.637 77.023 C 253.447 76.905,253.188 77.204,253.061 77.687 M149.646 79.467 C 149.621 79.724,149.484 80.264,149.341 80.667 C 149.140 81.236,149.194 81.297,149.579 80.942 C 149.852 80.691,149.989 80.151,149.884 79.742 C 149.779 79.334,149.672 79.210,149.646 79.467 M259.200 80.200 C 259.200 80.750,259.380 81.200,259.600 81.200 C 259.820 81.200,260.000 80.750,260.000 80.200 C 260.000 79.650,259.820 79.200,259.600 79.200 C 259.380 79.200,259.200 79.650,259.200 80.200 M315.021 85.800 C 314.872 86.790,314.582 87.600,314.375 87.600 C 314.169 87.600,314.000 87.855,314.000 88.167 C 314.000 88.478,313.833 88.793,313.630 88.867 C 313.426 88.940,313.137 89.540,312.988 90.200 C 312.717 91.400,312.717 91.400,313.766 89.909 C 314.344 89.089,314.926 87.871,315.060 87.201 C 315.194 86.531,315.460 85.886,315.652 85.768 C 316.109 85.486,316.103 84.000,315.645 84.000 C 315.450 84.000,315.169 84.810,315.021 85.800 M260.400 84.976 C 260.400 85.293,260.580 85.664,260.800 85.800 C 261.020 85.936,261.200 86.397,261.200 86.824 C 261.200 87.251,261.391 87.600,261.624 87.600 C 261.857 87.600,261.935 87.781,261.798 88.003 C 261.563 88.384,263.039 90.857,263.663 91.126 C 263.824 91.195,263.856 91.510,263.735 91.826 C 263.614 92.142,263.701 92.400,263.929 92.400 C 264.156 92.400,264.626 92.683,264.971 93.029 C 265.317 93.374,265.600 93.473,265.600 93.248 C 265.600 93.024,265.372 92.696,265.094 92.520 C 264.815 92.344,264.230 91.437,263.794 90.505 C 263.357 89.572,262.873 88.807,262.718 88.805 C 262.563 88.802,262.318 88.170,262.174 87.400 C 262.029 86.630,261.751 86.000,261.555 86.000 C 261.360 86.000,261.200 85.640,261.200 85.200 C 261.200 84.760,261.020 84.400,260.800 84.400 C 260.580 84.400,260.400 84.659,260.400 84.976 M146.000 90.600 C 146.000 90.930,146.180 91.200,146.400 91.200 C 146.620 91.200,146.800 91.470,146.800 91.800 C 146.800 92.130,146.999 92.400,147.243 92.400 C 147.486 92.400,147.582 92.670,147.455 93.000 C 147.329 93.330,147.399 93.600,147.613 93.600 C 147.826 93.600,148.000 93.420,148.000 93.200 C 148.000 92.749,149.320 92.653,149.741 93.074 C 150.208 93.542,152.913 94.366,154.800 94.616 C 155.790 94.748,156.960 95.014,157.400 95.209 C 158.765 95.812,161.308 96.380,161.662 96.161 C 161.848 96.047,162.000 96.121,162.000 96.326 C 162.000 96.532,162.470 96.700,163.045 96.700 C 163.621 96.700,164.225 96.916,164.388 97.181 C 164.551 97.445,164.936 97.619,165.243 97.568 C 165.549 97.516,166.070 97.571,166.400 97.690 C 167.937 98.243,172.358 99.323,173.267 99.367 C 173.633 99.385,174.068 99.535,174.233 99.700 C 174.398 99.865,174.953 100.000,175.467 100.000 C 175.980 100.000,176.400 100.201,176.400 100.447 C 176.400 100.707,176.816 100.814,177.400 100.702 C 177.950 100.597,178.400 100.653,178.400 100.827 C 178.400 101.001,179.435 101.345,180.700 101.592 C 181.965 101.840,183.360 102.202,183.800 102.397 C 184.240 102.593,185.410 102.932,186.400 103.151 C 187.390 103.370,188.920 103.737,189.800 103.965 C 191.571 104.425,195.200 104.546,195.200 104.144 C 195.200 103.563,193.715 102.825,192.524 102.813 C 191.822 102.806,191.153 102.648,191.038 102.461 C 190.923 102.275,190.281 102.107,189.612 102.088 C 188.944 102.069,188.104 101.761,187.747 101.404 C 187.389 101.046,186.856 100.846,186.561 100.960 C 186.267 101.073,185.918 100.991,185.787 100.779 C 185.656 100.567,185.107 100.474,184.566 100.572 C 184.026 100.670,183.682 100.590,183.803 100.395 C 184.070 99.963,181.441 99.422,180.615 99.739 C 180.289 99.864,179.785 99.727,179.493 99.436 C 178.801 98.744,177.649 98.393,175.853 98.325 C 175.054 98.295,174.400 98.090,174.400 97.869 C 174.400 97.648,174.280 97.587,174.132 97.734 C 173.985 97.881,173.580 97.756,173.232 97.456 C 172.885 97.155,171.970 96.795,171.200 96.655 C 170.214 96.476,169.977 96.517,170.400 96.794 C 170.887 97.114,170.831 97.189,170.100 97.194 C 169.605 97.197,169.200 97.020,169.200 96.800 C 169.200 96.580,168.786 96.400,168.280 96.400 C 167.774 96.400,167.189 96.254,166.980 96.076 C 166.307 95.502,164.337 94.775,164.598 95.197 C 164.735 95.419,164.676 95.600,164.466 95.600 C 164.257 95.600,163.974 95.309,163.838 94.954 C 163.663 94.500,163.270 94.370,162.510 94.515 C 161.858 94.640,161.267 94.508,161.015 94.181 C 160.787 93.883,159.880 93.549,159.000 93.438 C 158.120 93.327,157.011 93.121,156.536 92.981 C 155.901 92.793,155.623 92.921,155.483 93.463 C 155.328 94.063,155.284 94.033,155.246 93.300 C 155.195 92.299,154.803 92.157,154.080 92.880 C 153.707 93.253,153.600 93.253,153.600 92.880 C 153.600 92.616,153.345 92.400,153.033 92.400 C 152.722 92.400,152.407 92.244,152.333 92.053 C 152.260 91.862,151.772 91.573,151.250 91.410 C 150.557 91.194,150.381 91.245,150.598 91.597 C 150.828 91.969,150.702 91.976,150.048 91.626 C 149.582 91.376,149.200 90.977,149.200 90.739 C 149.200 90.494,148.768 90.389,148.200 90.498 C 147.650 90.603,147.200 90.534,147.200 90.345 C 147.200 90.155,146.930 90.000,146.600 90.000 C 146.270 90.000,146.000 90.270,146.000 90.600 M311.596 92.204 C 311.057 92.855,311.480 92.991,312.343 92.444 C 312.672 92.235,312.729 92.004,312.488 91.854 C 312.269 91.719,311.868 91.877,311.596 92.204 M308.379 95.989 C 306.985 97.303,305.978 98.512,306.142 98.675 C 306.400 98.934,311.200 94.300,311.200 93.792 C 311.200 93.389,310.838 93.670,308.379 95.989 M265.600 94.253 C 265.600 94.504,267.194 96.000,267.461 96.000 C 267.742 96.000,267.583 95.703,266.853 94.861 C 266.116 94.011,265.600 93.761,265.600 94.253 M268.663 97.600 C 269.714 98.780,270.800 99.186,270.800 98.400 C 270.800 98.180,270.648 98.000,270.461 98.000 C 270.275 98.000,269.707 97.640,269.200 97.200 C 267.800 95.986,267.455 96.244,268.663 97.600 M271.067 99.091 C 270.774 99.566,272.278 100.255,272.697 99.837 C 272.827 99.706,272.648 99.600,272.300 99.600 C 271.952 99.600,271.595 99.384,271.507 99.120 C 271.390 98.770,271.271 98.762,271.067 99.091 M273.092 100.242 C 272.694 100.639,273.788 101.532,275.052 101.842 C 275.683 101.997,276.315 102.299,276.455 102.513 C 276.596 102.727,276.931 102.766,277.201 102.599 C 277.516 102.405,276.993 101.999,275.746 101.468 C 274.676 101.012,273.698 100.493,273.573 100.314 C 273.448 100.134,273.231 100.102,273.092 100.242 M302.800 100.400 C 302.800 100.620,302.485 100.803,302.100 100.806 C 301.534 100.811,301.508 100.880,301.965 101.170 C 302.328 101.400,302.721 101.336,303.065 100.992 C 303.701 100.356,303.750 100.000,303.200 100.000 C 302.980 100.000,302.800 100.180,302.800 100.400 M299.700 101.882 C 298.586 102.097,298.502 102.773,299.600 102.690 C 300.040 102.657,300.400 102.501,300.400 102.344 C 300.400 102.187,300.715 101.976,301.100 101.876 C 302.001 101.640,300.930 101.645,299.700 101.882 M278.320 103.280 C 278.693 103.653,278.907 103.653,279.280 103.280 C 279.653 102.907,279.547 102.800,278.800 102.800 C 278.053 102.800,277.947 102.907,278.320 103.280 M280.600 103.600 C 279.826 103.933,279.828 103.945,280.667 103.972 C 281.144 103.987,281.864 104.124,282.267 104.275 C 282.912 104.517,282.934 104.469,282.451 103.875 C 281.841 103.124,281.741 103.110,280.600 103.600 M294.013 103.891 C 293.489 104.482,293.503 104.523,294.146 104.276 C 294.542 104.124,295.131 104.000,295.456 104.000 C 295.781 104.000,295.936 103.820,295.800 103.600 C 295.438 103.014,294.683 103.137,294.013 103.891 M287.505 104.283 C 288.002 104.379,288.722 104.375,289.105 104.275 C 289.487 104.175,289.080 104.096,288.200 104.101 C 287.320 104.105,287.007 104.187,287.505 104.283 " stroke="none" fill="#ffffff" fill-rule="evenodd"></path><path id="path2" d="M202.300 0.320 C 201.035 0.386,200.000 0.593,200.000 0.780 C 200.000 0.967,199.145 1.221,198.100 1.345 C 197.055 1.469,195.930 1.634,195.600 1.712 C 193.828 2.129,192.514 2.496,191.800 2.771 C 189.961 3.482,188.143 4.094,187.300 4.287 C 186.805 4.401,186.400 4.652,186.400 4.847 C 186.400 5.041,186.170 5.200,185.889 5.200 C 184.985 5.200,178.407 8.802,178.403 9.300 C 178.401 9.465,178.207 9.600,177.971 9.600 C 177.736 9.600,177.301 9.825,177.006 10.100 C 176.711 10.375,175.869 11.048,175.135 11.595 C 171.121 14.588,164.244 22.485,162.527 26.073 C 162.127 26.908,161.679 27.593,161.532 27.595 C 161.384 27.598,161.145 28.140,161.000 28.800 C 160.855 29.460,160.571 30.000,160.368 30.000 C 160.166 30.000,160.000 30.349,160.000 30.776 C 160.000 31.203,159.834 31.655,159.631 31.781 C 159.428 31.906,159.135 32.586,158.980 33.291 C 158.825 33.997,158.554 34.850,158.378 35.187 C 157.847 36.204,156.800 39.895,156.800 40.752 C 156.800 41.192,156.645 41.649,156.454 41.766 C 156.135 41.964,155.699 45.283,155.426 49.600 C 155.258 52.255,156.085 62.400,156.470 62.400 C 156.651 62.400,156.800 62.861,156.800 63.425 C 156.800 64.460,157.788 68.083,158.378 69.213 C 158.554 69.550,158.825 70.403,158.980 71.109 C 159.135 71.814,159.428 72.494,159.631 72.619 C 159.834 72.745,160.000 73.197,160.000 73.624 C 160.000 74.051,160.166 74.400,160.368 74.400 C 160.571 74.400,160.855 74.940,161.000 75.600 C 161.145 76.260,161.429 76.800,161.632 76.800 C 161.834 76.800,162.000 77.005,162.000 77.255 C 162.000 78.979,173.544 92.800,174.984 92.800 C 175.122 92.800,175.720 93.250,176.313 93.800 C 176.907 94.350,177.604 94.800,177.863 94.800 C 178.121 94.800,178.393 94.942,178.467 95.116 C 178.646 95.539,182.081 97.571,184.800 98.860 C 188.862 100.786,189.917 101.200,190.760 101.200 C 191.222 101.200,191.600 101.380,191.600 101.600 C 191.600 101.820,192.062 102.000,192.626 102.000 C 193.191 102.000,193.982 102.176,194.384 102.392 C 194.787 102.607,196.170 102.904,197.458 103.052 C 198.746 103.200,199.909 103.487,200.041 103.689 C 200.374 104.196,214.030 104.196,214.350 103.689 C 214.487 103.471,215.410 103.211,216.400 103.112 C 218.321 102.921,221.801 102.102,222.813 101.604 C 223.150 101.438,224.001 101.175,224.704 101.021 C 225.407 100.867,226.841 100.305,227.891 99.772 C 228.941 99.239,229.937 98.803,230.104 98.802 C 230.352 98.800,234.031 96.558,238.160 93.891 C 239.893 92.771,245.385 87.620,247.000 85.599 C 249.681 82.243,250.400 81.237,250.400 80.842 C 250.400 80.599,250.554 80.400,250.743 80.400 C 251.036 80.400,255.071 72.570,256.000 70.200 C 256.716 68.370,257.600 65.045,257.600 64.178 C 257.600 63.666,257.761 63.148,257.958 63.026 C 259.158 62.285,259.199 43.634,258.007 41.229 C 257.667 40.545,256.804 37.264,256.499 35.500 C 256.395 34.895,256.150 34.400,255.955 34.400 C 255.760 34.400,255.600 34.109,255.600 33.754 C 255.600 32.871,251.190 24.000,250.752 24.000 C 250.558 24.000,250.400 23.801,250.400 23.559 C 250.400 22.767,244.497 15.755,242.321 13.962 C 241.155 13.001,239.909 11.896,239.553 11.507 C 239.197 11.118,238.805 10.800,238.681 10.800 C 238.558 10.800,237.319 10.042,235.928 9.115 C 233.686 7.620,226.301 3.628,225.787 3.633 C 225.679 3.634,224.918 3.432,224.095 3.184 C 221.459 2.389,217.847 1.534,216.200 1.315 C 215.320 1.198,214.498 0.943,214.374 0.747 C 214.141 0.381,206.390 0.107,202.300 0.320 M316.600 20.306 C 316.862 20.499,317.000 34.929,317.000 62.200 L 317.000 103.800 358.200 103.800 L 399.400 103.800 399.400 62.200 C 399.400 34.929,399.538 20.499,399.800 20.306 C 400.020 20.144,381.300 20.012,358.200 20.012 C 335.100 20.012,316.380 20.144,316.600 20.306 M398.729 20.996 C 398.842 21.108,380.623 21.200,358.243 21.200 C 335.863 21.200,317.636 21.065,317.738 20.900 C 317.942 20.571,398.400 20.666,398.729 20.996 M55.600 56.330 C 55.600 56.580,54.970 57.769,54.200 58.973 C 53.430 60.177,52.800 61.257,52.800 61.374 C 52.800 61.490,52.080 62.762,51.200 64.200 C 50.320 65.638,49.600 66.991,49.600 67.207 C 49.600 67.423,49.432 67.600,49.227 67.600 C 49.022 67.600,48.730 67.991,48.578 68.468 C 48.427 68.946,47.695 70.287,46.951 71.449 C 46.208 72.611,45.600 73.657,45.600 73.774 C 45.600 73.890,44.880 75.162,44.000 76.600 C 43.120 78.038,42.400 79.305,42.400 79.417 C 42.400 79.528,41.680 80.760,40.800 82.153 C 39.920 83.546,39.200 84.892,39.200 85.143 C 39.200 85.394,39.020 85.600,38.800 85.600 C 38.580 85.600,38.400 85.777,38.400 85.993 C 38.400 86.209,37.680 87.562,36.800 89.000 C 35.920 90.438,35.200 91.791,35.200 92.007 C 35.200 92.223,35.058 92.400,34.883 92.400 C 34.709 92.400,34.290 92.985,33.951 93.700 C 33.169 95.353,31.862 97.739,31.596 98.000 C 31.484 98.110,31.038 98.875,30.605 99.700 C 30.172 100.525,29.699 101.200,29.552 101.200 C 29.406 101.200,29.174 101.650,29.036 102.200 C 28.898 102.750,28.563 103.203,28.292 103.206 C 27.974 103.210,28.012 103.349,28.400 103.600 C 29.185 104.107,83.466 104.141,83.779 103.634 C 83.903 103.433,83.869 103.208,83.702 103.134 C 83.339 102.973,81.638 100.084,81.328 99.100 C 81.206 98.715,80.948 98.400,80.753 98.400 C 80.559 98.400,80.400 98.143,80.400 97.829 C 80.400 97.514,80.175 97.019,79.899 96.729 C 79.624 96.438,79.039 95.480,78.599 94.600 C 78.160 93.720,77.697 92.910,77.571 92.800 C 77.445 92.690,77.217 92.330,77.066 92.000 C 76.914 91.670,76.242 90.500,75.573 89.400 C 74.905 88.300,74.256 87.085,74.132 86.700 C 74.008 86.315,73.748 86.000,73.553 86.000 C 73.359 86.000,73.200 85.743,73.200 85.429 C 73.200 85.114,72.975 84.617,72.700 84.322 C 72.425 84.028,71.840 83.071,71.401 82.194 C 70.961 81.317,70.376 80.362,70.101 80.071 C 69.825 79.781,69.600 79.286,69.600 78.971 C 69.600 78.657,69.460 78.400,69.290 78.400 C 69.119 78.400,68.624 77.592,68.190 76.604 C 67.755 75.616,67.265 74.806,67.100 74.804 C 66.935 74.802,66.800 74.530,66.800 74.200 C 66.800 73.870,66.659 73.600,66.488 73.600 C 66.316 73.600,65.969 73.105,65.717 72.500 C 65.249 71.379,63.563 68.363,63.200 68.000 C 63.090 67.890,62.685 67.215,62.300 66.500 C 61.915 65.785,61.285 64.615,60.900 63.900 C 60.515 63.185,60.065 62.540,59.900 62.467 C 59.735 62.393,59.600 62.093,59.600 61.800 C 59.600 61.507,59.465 61.207,59.300 61.133 C 59.135 61.060,58.550 60.134,58.000 59.075 C 56.964 57.081,55.600 55.521,55.600 56.330 M140.200 83.106 C 139.980 83.268,139.260 84.466,138.600 85.769 C 137.940 87.072,137.218 88.332,136.995 88.569 C 136.773 88.806,136.371 89.450,136.102 90.000 C 135.834 90.550,134.976 92.080,134.197 93.400 C 133.417 94.720,132.564 96.295,132.302 96.900 C 132.039 97.505,131.684 98.000,131.512 98.000 C 131.341 98.000,131.200 98.177,131.200 98.394 C 131.200 98.611,130.660 99.666,130.000 100.738 C 127.869 104.201,127.216 104.000,140.600 104.000 C 150.523 104.000,152.400 103.910,152.400 103.432 C 152.400 102.765,151.135 100.260,150.700 100.067 C 150.535 99.993,150.400 99.772,150.400 99.574 C 150.400 99.376,149.680 98.038,148.800 96.600 C 147.920 95.162,147.200 93.809,147.200 93.593 C 147.200 93.377,147.059 93.200,146.888 93.200 C 146.716 93.200,146.369 92.705,146.117 92.100 C 145.649 90.978,143.962 87.962,143.600 87.600 C 143.224 87.224,141.549 84.202,141.328 83.500 C 141.088 82.742,140.822 82.649,140.200 83.106 " stroke="none" fill="#ec2300" fill-rule="evenodd"></path><path id="path3" d="M197.025 0.444 C 195.719 0.634,194.468 0.972,194.245 1.195 C 194.022 1.418,193.426 1.600,192.920 1.600 C 192.414 1.600,192.000 1.780,192.000 2.000 C 192.000 2.220,191.475 2.400,190.833 2.400 C 189.375 2.400,188.340 2.779,188.609 3.215 C 188.722 3.398,188.285 3.532,187.639 3.513 C 186.992 3.495,186.166 3.777,185.803 4.140 C 185.440 4.503,184.886 4.800,184.571 4.800 C 184.257 4.800,184.000 4.980,184.000 5.200 C 184.000 5.420,183.730 5.600,183.400 5.600 C 183.070 5.600,182.800 5.780,182.800 6.000 C 182.800 6.503,183.476 6.524,183.781 6.031 C 183.906 5.828,184.547 5.543,185.205 5.399 C 185.862 5.255,186.400 4.992,186.400 4.815 C 186.400 4.638,186.805 4.401,187.300 4.287 C 188.143 4.094,189.961 3.482,191.800 2.771 C 192.514 2.496,193.828 2.129,195.600 1.712 C 195.930 1.634,197.055 1.469,198.100 1.345 C 199.145 1.221,200.000 0.967,200.000 0.780 C 200.000 0.593,201.035 0.375,202.300 0.296 L 204.600 0.151 202.000 0.124 C 200.570 0.110,198.331 0.253,197.025 0.444 M206.100 0.287 C 206.705 0.378,207.695 0.378,208.300 0.287 C 208.905 0.195,208.410 0.120,207.200 0.120 C 205.990 0.120,205.495 0.195,206.100 0.287 M213.500 0.257 C 213.995 0.366,214.400 0.605,214.400 0.788 C 214.400 0.970,215.165 1.210,216.100 1.320 C 217.898 1.533,221.534 2.395,224.200 3.241 C 225.080 3.520,225.890 3.763,226.000 3.780 C 226.110 3.798,226.437 3.963,226.727 4.146 C 227.016 4.330,227.363 4.370,227.497 4.236 C 227.965 3.768,226.187 2.852,224.300 2.590 C 223.255 2.444,222.400 2.162,222.400 1.962 C 222.400 1.763,221.961 1.600,221.424 1.600 C 220.887 1.600,220.331 1.411,220.188 1.181 C 220.046 0.950,219.630 0.811,219.265 0.871 C 218.899 0.931,218.420 0.870,218.200 0.736 C 217.980 0.601,216.630 0.394,215.200 0.275 C 213.770 0.156,213.005 0.148,213.500 0.257 M228.095 4.605 C 228.258 4.780,229.113 5.247,229.995 5.642 C 231.566 6.346,232.131 6.139,231.062 5.251 C 230.438 4.734,227.654 4.127,228.095 4.605 M181.000 6.693 C 180.227 6.886,179.619 7.494,179.606 8.087 C 179.603 8.244,180.230 8.001,181.000 7.547 C 182.336 6.759,182.749 6.346,182.100 6.446 C 181.935 6.472,181.440 6.583,181.000 6.693 M232.000 6.527 C 232.000 6.679,234.817 8.493,238.200 10.521 C 238.640 10.784,239.132 11.180,239.294 11.400 C 239.459 11.625,239.590 11.490,239.594 11.090 C 239.597 10.697,239.153 10.210,238.600 10.000 C 238.050 9.791,237.600 9.435,237.600 9.210 C 237.600 8.984,237.330 8.800,237.000 8.800 C 236.670 8.800,236.400 8.623,236.400 8.408 C 236.400 8.192,235.905 7.894,235.300 7.746 C 234.695 7.598,234.110 7.349,234.000 7.192 C 233.761 6.853,232.000 6.267,232.000 6.527 M177.833 8.657 C 177.475 9.591,177.854 9.803,178.581 9.076 C 179.347 8.310,179.365 8.000,178.643 8.000 C 178.336 8.000,177.972 8.296,177.833 8.657 M175.745 10.200 C 175.618 10.530,175.264 10.800,174.957 10.800 C 174.651 10.800,174.400 11.070,174.400 11.400 C 174.400 11.730,174.052 12.000,173.627 12.000 C 173.202 12.000,172.743 12.351,172.606 12.780 C 172.470 13.208,172.025 13.665,171.616 13.795 C 171.208 13.924,170.773 14.294,170.650 14.615 C 170.526 14.937,170.119 15.200,169.746 15.200 C 169.372 15.200,169.176 15.310,169.310 15.444 C 169.444 15.578,168.921 16.338,168.149 17.134 C 165.369 19.997,167.542 18.754,170.635 15.712 C 174.014 12.390,176.352 10.400,176.877 10.400 C 177.055 10.400,177.200 10.220,177.200 10.000 C 177.200 9.369,176.000 9.534,175.745 10.200 M240.022 11.857 C 240.035 12.046,241.015 12.965,242.200 13.901 C 244.351 15.598,250.400 22.722,250.400 23.559 C 250.400 23.801,250.569 24.000,250.775 24.000 C 250.981 24.000,251.123 23.640,251.090 23.200 C 251.057 22.760,250.798 22.400,250.515 22.400 C 250.232 22.400,250.000 22.130,250.000 21.800 C 250.000 21.470,249.823 21.200,249.608 21.200 C 249.392 21.200,249.098 20.733,248.955 20.162 C 248.762 19.395,248.605 19.264,248.353 19.662 C 248.090 20.077,248.011 20.041,248.006 19.500 C 248.003 19.115,247.832 18.800,247.627 18.800 C 247.422 18.800,247.130 18.409,246.978 17.931 C 246.705 17.069,245.200 15.199,245.200 15.721 C 245.200 15.870,244.840 15.684,244.400 15.307 C 243.960 14.930,243.600 14.469,243.600 14.283 C 243.600 13.790,242.534 12.800,242.005 12.800 C 241.756 12.800,241.664 12.620,241.800 12.400 C 241.936 12.180,241.871 12.000,241.656 12.000 C 241.441 12.000,240.981 11.891,240.633 11.757 C 240.285 11.624,240.010 11.669,240.022 11.857 M165.200 20.768 C 164.298 21.823,163.604 22.918,163.342 23.700 C 163.212 24.085,162.948 24.400,162.753 24.400 C 162.559 24.400,162.400 24.738,162.400 25.151 C 162.400 25.564,162.130 26.126,161.800 26.400 C 161.166 26.927,160.996 27.603,161.500 27.595 C 161.665 27.593,162.131 26.899,162.536 26.054 C 162.941 25.208,163.976 23.587,164.836 22.450 C 165.696 21.314,166.400 20.297,166.400 20.192 C 166.400 19.794,165.778 20.093,165.200 20.768 M316.100 62.300 L 316.200 104.200 358.000 104.200 L 399.800 104.200 399.902 62.300 C 399.958 39.255,399.868 20.400,399.702 20.400 C 399.536 20.400,399.400 39.165,399.400 62.100 L 399.400 103.800 358.200 103.800 L 317.000 103.800 317.000 62.100 C 317.000 29.003,316.897 20.400,316.500 20.400 C 316.102 20.400,316.020 28.990,316.100 62.300 M317.738 20.900 C 317.636 21.065,335.863 21.200,358.243 21.200 C 380.623 21.200,398.842 21.108,398.729 20.996 C 398.400 20.666,317.942 20.571,317.738 20.900 M251.600 25.200 C 252.048 26.037,252.800 26.288,252.800 25.600 C 252.800 25.380,252.609 25.200,252.376 25.200 C 252.143 25.200,252.064 25.020,252.200 24.800 C 252.336 24.580,252.160 24.400,251.810 24.400 C 251.296 24.400,251.255 24.556,251.600 25.200 M160.263 28.883 C 160.046 29.709,160.214 30.340,160.550 29.967 C 160.958 29.515,161.207 28.000,160.874 28.000 C 160.664 28.000,160.389 28.397,160.263 28.883 M253.486 28.806 C 253.602 29.250,253.885 29.729,254.116 29.872 C 254.380 30.035,254.436 29.872,254.268 29.433 C 254.121 29.049,254.000 28.569,254.000 28.367 C 254.000 28.165,253.837 28.000,253.637 28.000 C 253.438 28.000,253.370 28.363,253.486 28.806 M159.339 31.113 C 159.212 31.596,158.950 31.892,158.755 31.772 C 158.560 31.651,158.398 31.968,158.395 32.476 C 158.392 32.984,158.273 33.833,158.132 34.363 C 157.951 35.037,158.012 35.240,158.337 35.039 C 158.592 34.882,158.800 34.476,158.800 34.137 C 158.800 33.798,159.094 32.902,159.452 32.146 C 159.811 31.390,159.984 30.651,159.836 30.503 C 159.689 30.356,159.465 30.630,159.339 31.113 M254.616 31.100 C 254.782 31.485,255.116 32.385,255.357 33.100 C 255.598 33.815,255.935 34.400,256.105 34.400 C 256.507 34.400,255.982 32.242,255.538 32.067 C 255.352 31.993,255.200 31.588,255.200 31.167 C 255.200 30.745,255.001 30.400,254.757 30.400 C 254.487 30.400,254.432 30.673,254.616 31.100 M256.400 35.716 C 256.400 35.817,256.670 36.665,257.000 37.600 C 257.330 38.535,257.600 39.717,257.600 40.227 C 257.600 40.736,257.807 41.281,258.060 41.437 C 258.397 41.645,258.443 41.147,258.233 39.568 C 258.076 38.384,257.770 37.305,257.553 37.171 C 257.336 37.037,257.212 36.696,257.279 36.413 C 257.345 36.131,257.175 35.818,256.900 35.717 C 256.625 35.616,256.400 35.616,256.400 35.716 M157.200 37.024 C 157.200 37.587,157.045 37.951,156.855 37.834 C 156.665 37.716,156.401 38.535,156.268 39.652 C 156.136 40.770,155.819 41.936,155.565 42.242 C 155.310 42.549,155.239 42.800,155.407 42.800 C 155.956 42.800,156.774 41.420,156.787 40.474 C 156.794 39.964,156.955 39.244,157.145 38.874 C 157.765 37.660,158.033 36.000,157.608 36.000 C 157.383 36.000,157.200 36.461,157.200 37.024 M258.620 44.900 C 258.786 46.495,258.922 49.780,258.922 52.200 C 258.922 54.620,258.786 57.905,258.620 59.500 C 258.410 61.527,258.451 62.400,258.759 62.400 C 259.022 62.400,259.200 61.583,259.200 60.376 C 259.200 59.263,259.358 58.450,259.551 58.569 C 259.745 58.690,259.918 56.028,259.938 52.593 C 259.961 48.835,259.823 46.400,259.588 46.400 C 259.375 46.400,259.200 46.209,259.200 45.976 C 259.200 45.743,259.425 45.680,259.700 45.835 C 260.100 46.061,260.100 46.010,259.700 45.579 C 259.425 45.282,259.200 44.356,259.200 43.520 C 259.200 42.680,259.003 42.000,258.759 42.000 C 258.451 42.000,258.410 42.873,258.620 44.900 M155.200 45.376 C 155.200 46.353,155.039 47.252,154.843 47.373 C 154.647 47.495,154.465 49.710,154.439 52.297 C 154.407 55.535,154.516 56.813,154.790 56.400 C 155.070 55.977,155.190 56.764,155.194 59.067 C 155.197 60.922,155.376 62.392,155.607 62.469 C 155.831 62.544,156.126 63.544,156.262 64.692 C 156.398 65.840,156.665 66.684,156.855 66.566 C 157.045 66.449,157.200 66.939,157.200 67.656 C 157.200 68.565,157.327 68.833,157.619 68.541 C 157.911 68.249,157.852 67.588,157.425 66.361 C 157.088 65.392,156.809 64.105,156.806 63.500 C 156.803 62.895,156.651 62.400,156.470 62.400 C 155.676 62.400,155.183 49.984,155.806 45.700 C 156.022 44.217,155.978 43.600,155.656 43.600 C 155.383 43.600,155.200 44.314,155.200 45.376 M55.200 56.000 C 55.200 56.440,55.009 56.800,54.776 56.800 C 54.543 56.800,54.456 56.968,54.583 57.173 C 54.710 57.378,54.479 57.783,54.071 58.073 C 53.442 58.520,52.490 60.800,52.933 60.800 C 53.182 60.800,55.508 56.920,55.789 56.034 C 55.945 55.544,55.878 55.200,55.627 55.200 C 55.392 55.200,55.200 55.560,55.200 56.000 M57.423 58.091 C 58.180 59.241,58.800 60.411,58.800 60.691 C 58.800 60.971,58.980 61.200,59.200 61.200 C 59.420 61.200,59.600 61.470,59.600 61.800 C 59.600 62.130,59.792 62.400,60.027 62.400 C 60.619 62.400,60.080 60.853,59.136 59.839 C 58.714 59.386,58.266 58.607,58.141 58.108 C 58.016 57.609,57.753 57.200,57.557 57.200 C 57.360 57.200,57.200 56.930,57.200 56.600 C 57.200 56.270,56.940 56.000,56.623 56.000 C 56.222 56.000,56.467 56.639,57.423 58.091 M52.000 61.824 C 52.000 62.167,51.820 62.336,51.600 62.200 C 51.380 62.064,51.186 62.098,51.169 62.276 C 51.051 63.532,50.752 64.159,50.029 64.665 C 49.573 64.984,49.200 65.553,49.200 65.930 C 49.200 66.306,48.751 67.276,48.201 68.084 C 47.590 68.983,47.361 69.652,47.611 69.807 C 47.837 69.946,48.214 69.507,48.449 68.830 C 48.685 68.154,49.041 67.600,49.239 67.600 C 49.438 67.600,49.600 67.423,49.600 67.207 C 49.600 66.991,50.320 65.638,51.200 64.200 C 52.932 61.369,53.000 61.200,52.400 61.200 C 52.180 61.200,52.000 61.481,52.000 61.824 M60.605 62.792 C 60.329 63.239,61.151 64.983,61.482 64.652 C 61.601 64.532,61.558 64.112,61.386 63.717 C 61.214 63.323,61.102 62.865,61.136 62.700 C 61.227 62.271,60.891 62.329,60.605 62.792 M257.867 63.067 C 257.720 63.213,257.592 63.798,257.582 64.367 C 257.573 64.935,257.309 66.118,256.997 66.995 C 256.633 68.017,256.567 68.727,256.815 68.975 C 257.062 69.222,257.200 68.973,257.200 68.280 C 257.200 67.686,257.357 67.200,257.548 67.200 C 257.740 67.200,258.019 66.279,258.168 65.153 C 258.441 63.101,258.364 62.570,257.867 63.067 M62.678 67.177 C 62.796 67.630,63.066 68.000,63.276 68.000 C 63.807 68.000,63.507 66.702,62.931 66.510 C 62.633 66.411,62.541 66.654,62.678 67.177 M93.951 69.013 C 93.210 70.595,93.587 70.919,94.400 69.400 L 94.935 68.400 105.523 68.400 C 115.121 68.400,116.166 68.465,116.689 69.100 C 117.234 69.763,117.253 69.761,117.033 69.067 C 116.905 68.664,116.800 68.169,116.800 67.967 C 116.800 67.753,112.184 67.605,105.700 67.613 L 94.600 67.626 93.951 69.013 M63.600 68.594 C 63.600 68.701,64.140 69.666,64.800 70.738 C 65.460 71.811,66.000 72.894,66.000 73.144 C 66.000 73.395,66.192 73.600,66.427 73.600 C 66.919 73.600,66.491 71.875,65.947 71.667 C 65.756 71.593,65.600 71.183,65.600 70.754 C 65.600 70.326,65.330 69.871,65.000 69.745 C 64.670 69.618,64.400 69.264,64.400 68.957 C 64.400 68.651,64.220 68.400,64.000 68.400 C 63.780 68.400,63.600 68.487,63.600 68.594 M158.232 70.661 C 158.387 71.507,158.669 72.260,158.857 72.333 C 159.046 72.407,159.200 72.812,159.200 73.233 C 159.200 73.655,159.380 74.000,159.600 74.000 C 160.155 74.000,160.100 73.484,159.402 72.146 C 159.074 71.516,158.804 70.696,158.802 70.324 C 158.801 69.952,158.609 69.529,158.374 69.384 C 158.084 69.205,158.039 69.611,158.232 70.661 M117.200 70.400 C 117.200 70.620,117.341 70.800,117.512 70.800 C 117.684 70.800,118.041 71.373,118.305 72.074 C 118.570 72.774,118.901 73.232,119.042 73.091 C 119.183 72.950,119.210 72.602,119.100 72.317 C 118.991 72.033,118.885 71.659,118.865 71.486 C 118.769 70.660,117.200 69.637,117.200 70.400 M255.608 70.978 C 255.381 71.577,255.323 72.276,255.481 72.531 C 255.648 72.801,255.888 72.411,256.053 71.601 C 256.408 69.868,256.161 69.524,255.608 70.978 M92.236 71.800 C 92.098 72.350,91.808 72.800,91.592 72.800 C 91.377 72.800,91.200 73.055,91.200 73.367 C 91.200 73.678,91.048 73.993,90.862 74.067 C 90.373 74.260,89.913 76.400,90.361 76.400 C 90.567 76.400,90.855 75.860,91.000 75.200 C 91.145 74.540,91.429 74.000,91.632 74.000 C 91.834 74.000,92.000 73.745,92.000 73.433 C 92.000 73.122,92.156 72.807,92.347 72.733 C 92.854 72.539,93.324 70.800,92.870 70.800 C 92.659 70.800,92.374 71.250,92.236 71.800 M45.833 72.257 C 45.452 73.250,45.872 73.386,46.382 72.434 C 46.627 71.975,46.661 71.600,46.457 71.600 C 46.253 71.600,45.972 71.896,45.833 72.257 M44.800 74.200 C 44.800 74.530,44.640 74.800,44.443 74.800 C 44.247 74.800,43.974 75.250,43.836 75.800 C 43.698 76.350,43.408 76.800,43.192 76.800 C 42.977 76.800,42.800 77.070,42.800 77.400 C 42.800 77.730,42.634 78.000,42.432 78.000 C 42.229 78.000,41.945 78.542,41.799 79.203 C 41.654 79.865,41.384 80.314,41.200 80.200 C 41.016 80.086,40.746 80.535,40.601 81.197 C 40.455 81.858,40.171 82.400,39.968 82.400 C 39.766 82.400,39.604 82.715,39.609 83.100 C 39.620 83.959,40.618 82.770,41.819 80.466 C 42.240 79.660,43.263 77.872,44.092 76.493 C 45.731 73.767,45.796 73.600,45.200 73.600 C 44.980 73.600,44.800 73.870,44.800 74.200 M160.223 75.300 C 160.545 76.350,160.730 76.604,160.984 76.349 C 161.290 76.044,160.735 74.400,160.326 74.400 C 160.117 74.400,160.070 74.804,160.223 75.300 M253.656 75.242 C 253.457 75.769,253.397 76.373,253.522 76.584 C 253.648 76.795,253.891 76.444,254.062 75.804 C 254.449 74.359,254.147 73.941,253.656 75.242 M68.018 76.434 C 68.264 76.893,68.544 77.189,68.642 77.092 C 68.922 76.812,68.354 75.600,67.943 75.600 C 67.739 75.600,67.773 75.975,68.018 76.434 M120.400 75.967 C 120.400 76.168,120.535 76.393,120.700 76.467 C 121.051 76.623,122.632 79.312,123.308 80.900 C 123.565 81.505,123.928 82.000,124.115 82.000 C 124.537 82.000,124.023 80.249,123.547 80.067 C 123.356 79.993,123.200 79.678,123.200 79.367 C 123.200 79.055,123.023 78.800,122.808 78.800 C 122.592 78.800,122.291 78.307,122.140 77.704 C 121.774 76.245,120.400 74.873,120.400 75.967 M0.095 90.100 L 0.200 104.200 42.500 104.302 C 88.832 104.413,86.187 104.550,83.800 102.164 C 83.250 101.614,82.800 100.992,82.800 100.782 C 82.800 100.572,82.610 100.400,82.377 100.400 C 81.936 100.400,83.108 102.791,83.789 103.278 C 84.718 103.944,80.895 104.001,41.800 103.903 L 0.600 103.800 0.600 89.900 C 0.600 82.255,0.463 76.000,0.295 76.000 C 0.127 76.000,0.037 82.345,0.095 90.100 M7.525 76.299 C 11.114 76.366,16.874 76.366,20.325 76.299 C 23.776 76.233,20.840 76.178,13.800 76.178 C 6.760 76.179,3.936 76.233,7.525 76.299 M89.200 77.274 C 89.200 77.535,88.809 78.165,88.330 78.674 C 87.714 79.330,87.627 79.597,88.030 79.590 C 88.344 79.585,88.911 78.955,89.292 78.190 C 89.672 77.426,89.807 76.800,89.592 76.800 C 89.376 76.800,89.200 77.013,89.200 77.274 M161.200 77.357 C 161.200 77.664,161.470 78.018,161.800 78.145 C 162.130 78.271,162.400 78.741,162.400 79.187 C 162.400 79.634,162.559 80.000,162.753 80.000 C 162.948 80.000,163.212 80.315,163.342 80.700 C 163.637 81.578,164.384 82.704,165.333 83.698 C 166.745 85.178,166.314 84.173,164.175 81.000 C 162.989 79.240,162.014 77.575,162.009 77.300 C 161.997 76.609,161.200 76.666,161.200 77.357 M251.600 79.200 C 251.100 80.133,251.411 80.246,252.229 79.429 C 252.893 78.764,252.959 78.400,252.414 78.400 C 252.202 78.400,251.835 78.760,251.600 79.200 M69.606 79.100 C 69.617 79.647,70.353 80.581,70.588 80.346 C 70.903 80.031,70.401 78.800,69.957 78.800 C 69.761 78.800,69.603 78.935,69.606 79.100 M87.043 80.633 C 86.605 81.773,86.788 82.168,87.387 81.376 C 87.710 80.949,87.980 80.465,87.987 80.300 C 88.011 79.741,87.287 79.996,87.043 80.633 M250.400 80.842 C 250.400 81.086,249.845 81.986,249.166 82.842 C 248.488 83.699,248.088 84.400,248.277 84.400 C 248.732 84.400,250.000 82.907,250.000 82.372 C 250.000 82.141,250.180 82.064,250.400 82.200 C 250.620 82.336,250.800 82.271,250.800 82.056 C 250.800 81.841,250.909 81.381,251.043 81.033 C 251.176 80.685,251.086 80.400,250.843 80.400 C 250.599 80.400,250.400 80.599,250.400 80.842 M70.880 81.100 C 70.960 81.265,71.288 81.940,71.608 82.600 C 71.929 83.260,72.418 84.038,72.695 84.329 C 72.973 84.619,73.200 85.114,73.200 85.429 C 73.200 85.743,73.379 86.000,73.597 86.000 C 74.193 86.000,73.864 84.606,73.084 83.827 C 72.438 83.181,72.232 82.622,72.363 81.870 C 72.394 81.689,72.235 81.655,72.010 81.794 C 71.784 81.933,71.600 81.767,71.600 81.424 C 71.600 81.081,71.405 80.800,71.167 80.800 C 70.928 80.800,70.799 80.935,70.880 81.100 M86.000 82.576 C 86.000 82.919,85.841 83.200,85.647 83.200 C 85.452 83.200,85.207 83.650,85.102 84.200 C 84.997 84.750,85.021 85.194,85.155 85.187 C 85.608 85.163,86.708 82.391,86.352 82.171 C 86.159 82.051,86.000 82.233,86.000 82.576 M124.480 82.700 C 125.424 84.639,125.780 85.200,126.064 85.200 C 126.249 85.200,126.400 85.560,126.400 86.000 C 126.400 86.440,126.220 86.800,126.000 86.800 C 125.780 86.800,125.600 87.048,125.600 87.351 C 125.600 87.654,125.330 88.126,125.000 88.400 C 124.314 88.969,124.209 89.600,124.800 89.600 C 125.020 89.600,125.200 89.319,125.200 88.976 C 125.200 88.633,125.380 88.464,125.600 88.600 C 125.820 88.736,126.000 88.589,126.000 88.273 C 126.000 87.957,126.270 87.474,126.600 87.200 C 127.258 86.654,127.423 85.200,126.827 85.200 C 126.622 85.200,126.328 84.803,126.174 84.319 C 125.885 83.409,125.055 82.400,124.595 82.400 C 124.451 82.400,124.399 82.535,124.480 82.700 M139.600 82.827 C 139.600 83.062,139.915 83.158,140.300 83.041 C 140.979 82.835,141.307 83.285,142.964 86.697 C 143.467 87.731,144.000 87.881,144.000 86.987 C 144.000 86.651,143.730 86.271,143.400 86.145 C 143.070 86.018,142.800 85.574,142.800 85.157 C 142.800 84.741,142.640 84.400,142.443 84.400 C 142.247 84.400,141.974 83.950,141.836 83.400 C 141.581 82.385,139.600 81.877,139.600 82.827 M138.661 84.487 C 138.354 85.661,138.631 85.863,139.169 84.859 C 139.413 84.403,139.447 83.952,139.247 83.829 C 139.051 83.708,138.788 84.004,138.661 84.487 M38.643 84.633 C 38.321 85.472,38.335 85.600,38.753 85.600 C 38.948 85.600,39.201 85.240,39.316 84.800 C 39.563 83.855,38.995 83.714,38.643 84.633 M246.432 86.226 C 245.590 87.464,241.592 91.263,240.280 92.074 C 239.495 92.559,240.235 92.837,241.242 92.434 C 241.769 92.223,242.087 92.039,241.948 92.025 C 241.515 91.982,245.120 88.400,245.596 88.400 C 245.844 88.400,245.936 88.220,245.800 88.000 C 245.664 87.780,245.814 87.600,246.133 87.600 C 246.452 87.600,246.826 87.150,246.964 86.600 C 247.102 86.050,247.392 85.600,247.608 85.600 C 247.823 85.600,248.000 85.420,248.000 85.200 C 248.000 84.422,247.388 84.823,246.432 86.226 M167.251 86.290 C 167.553 86.670,168.231 87.390,168.758 87.890 C 169.286 88.391,169.556 88.811,169.358 88.825 C 169.161 88.839,169.417 89.018,169.926 89.222 C 170.435 89.426,170.739 89.775,170.602 89.997 C 170.465 90.218,170.568 90.400,170.831 90.400 C 171.093 90.400,171.725 90.850,172.235 91.400 C 172.745 91.950,173.438 92.400,173.775 92.400 C 174.113 92.400,172.817 90.870,170.896 89.000 C 167.741 85.929,165.839 84.515,167.251 86.290 M37.600 86.600 C 37.600 86.930,37.420 87.200,37.200 87.200 C 36.980 87.200,36.800 87.457,36.800 87.771 C 36.800 88.086,36.575 88.588,36.300 88.887 C 35.471 89.789,34.769 91.200,35.150 91.200 C 35.457 91.200,38.400 86.646,38.400 86.171 C 38.400 86.077,38.220 86.000,38.000 86.000 C 37.780 86.000,37.600 86.270,37.600 86.600 M137.600 86.600 C 137.600 86.930,137.441 87.200,137.247 87.200 C 137.052 87.200,136.799 87.560,136.684 88.000 C 136.224 89.760,137.055 88.896,138.320 86.300 C 138.401 86.135,138.272 86.000,138.033 86.000 C 137.795 86.000,137.600 86.270,137.600 86.600 M74.000 86.577 C 74.000 86.907,75.678 89.600,75.883 89.600 C 76.257 89.600,75.568 87.511,75.009 86.952 C 74.463 86.406,74.000 86.234,74.000 86.577 M84.896 87.519 C 85.521 88.986,86.011 89.601,86.549 89.594 C 86.869 89.590,86.864 89.501,86.532 89.290 C 86.274 89.126,85.943 88.512,85.796 87.925 C 85.648 87.338,85.282 86.764,84.981 86.648 C 84.535 86.477,84.519 86.636,84.896 87.519 M144.000 88.177 C 144.000 88.521,145.701 91.232,145.834 91.100 C 146.092 90.842,145.504 89.200,145.153 89.200 C 144.959 89.200,144.800 88.930,144.800 88.600 C 144.800 88.270,144.620 88.000,144.400 88.000 C 144.180 88.000,144.000 88.080,144.000 88.177 M135.600 89.800 C 135.600 90.130,135.441 90.400,135.247 90.400 C 134.893 90.400,134.309 92.043,134.570 92.304 C 134.725 92.458,136.400 89.849,136.400 89.453 C 136.400 89.314,136.220 89.200,136.000 89.200 C 135.780 89.200,135.600 89.470,135.600 89.800 M76.000 90.351 C 76.000 90.544,76.270 90.926,76.600 91.200 C 76.930 91.474,77.200 91.946,77.200 92.249 C 77.200 92.552,77.363 92.800,77.563 92.800 C 77.762 92.800,77.831 92.440,77.716 92.000 C 77.601 91.560,77.348 91.200,77.153 91.200 C 76.959 91.200,76.800 90.930,76.800 90.600 C 76.800 90.270,76.620 90.000,76.400 90.000 C 76.180 90.000,76.000 90.158,76.000 90.351 M86.967 90.533 C 87.095 90.936,87.200 91.431,87.200 91.633 C 87.200 91.835,87.380 92.000,87.600 92.000 C 88.179 92.000,88.092 91.466,87.367 90.576 C 86.788 89.866,86.754 89.862,86.967 90.533 M123.606 90.788 C 123.354 91.259,123.228 91.859,123.326 92.122 C 123.424 92.385,123.711 92.080,123.964 91.445 C 124.514 90.058,124.254 89.579,123.606 90.788 M34.165 92.129 C 33.663 92.704,33.073 94.800,33.413 94.800 C 33.539 94.800,33.830 94.260,34.060 93.600 C 34.290 92.940,34.641 92.400,34.839 92.400 C 35.038 92.400,35.200 92.220,35.200 92.000 C 35.200 91.458,34.695 91.521,34.165 92.129 M146.284 92.400 C 146.399 92.840,146.744 93.200,147.050 93.200 C 147.507 93.200,147.517 93.056,147.107 92.400 C 146.832 91.960,146.488 91.600,146.341 91.600 C 146.195 91.600,146.169 91.960,146.284 92.400 M88.000 92.971 C 88.000 93.286,88.270 93.813,88.600 94.143 C 88.930 94.473,89.200 94.936,89.200 95.171 C 89.200 95.407,89.380 95.600,89.600 95.600 C 90.181 95.600,90.100 95.257,89.167 93.747 C 88.256 92.273,88.000 92.102,88.000 92.971 M120.983 95.476 C 119.052 98.742,118.966 98.945,119.615 98.728 C 119.898 98.634,120.181 98.210,120.243 97.786 C 120.306 97.361,120.546 96.951,120.778 96.874 C 121.010 96.797,121.200 96.478,121.200 96.167 C 121.200 95.855,121.360 95.600,121.557 95.600 C 121.753 95.600,122.026 95.150,122.164 94.600 C 122.302 94.050,122.592 93.600,122.808 93.600 C 123.023 93.600,123.200 93.420,123.200 93.200 C 123.200 92.226,122.451 92.995,120.983 95.476 M133.373 93.700 C 133.219 94.195,132.914 94.714,132.697 94.854 C 132.480 94.993,132.380 95.340,132.475 95.625 C 132.629 96.086,134.400 93.719,134.400 93.053 C 134.400 92.408,133.623 92.898,133.373 93.700 M174.400 93.200 C 174.400 93.420,174.651 93.600,174.957 93.600 C 175.264 93.600,175.618 93.870,175.745 94.200 C 175.871 94.530,176.294 94.800,176.683 94.800 C 177.263 94.800,177.195 94.618,176.313 93.800 C 175.192 92.760,174.400 92.512,174.400 93.200 M239.200 93.105 C 239.200 93.273,238.856 93.588,238.436 93.805 C 238.016 94.022,236.081 95.206,234.136 96.437 C 232.191 97.667,230.060 98.852,229.400 99.070 C 228.712 99.297,228.148 99.793,228.078 100.233 C 228.004 100.702,228.082 100.827,228.278 100.554 C 228.455 100.309,229.050 99.972,229.600 99.807 C 230.150 99.641,230.934 99.212,231.342 98.853 C 231.750 98.494,232.155 98.245,232.242 98.300 C 232.668 98.569,233.217 98.352,233.000 98.000 C 232.864 97.780,233.033 97.600,233.376 97.600 C 233.719 97.600,234.000 97.420,234.000 97.200 C 234.000 96.980,234.347 96.800,234.771 96.800 C 235.196 96.800,235.813 96.530,236.143 96.200 C 236.473 95.870,236.916 95.600,237.129 95.600 C 237.341 95.600,237.618 95.330,237.745 95.000 C 237.871 94.670,238.341 94.400,238.787 94.400 C 239.333 94.400,239.600 94.137,239.600 93.600 C 239.600 93.160,239.510 92.800,239.400 92.800 C 239.290 92.800,239.200 92.937,239.200 93.105 M78.000 93.438 C 78.000 93.806,79.340 96.121,79.900 96.721 C 80.175 97.016,80.400 97.514,80.400 97.829 C 80.400 98.143,80.569 98.400,80.775 98.400 C 81.337 98.400,81.111 96.851,80.516 96.623 C 80.232 96.514,80.000 96.054,80.000 95.600 C 80.000 95.146,79.730 94.671,79.400 94.545 C 79.070 94.418,78.800 94.064,78.800 93.757 C 78.800 93.451,78.620 93.200,78.400 93.200 C 78.180 93.200,78.000 93.307,78.000 93.438 M147.200 93.777 C 147.200 94.176,148.912 96.821,149.069 96.664 C 149.391 96.343,148.714 94.406,148.357 94.626 C 148.161 94.748,148.000 94.567,148.000 94.224 C 148.000 93.881,147.820 93.600,147.600 93.600 C 147.380 93.600,147.200 93.680,147.200 93.777 M177.757 95.433 C 177.891 95.781,178.000 96.141,178.000 96.233 C 178.000 96.325,178.366 96.400,178.813 96.400 C 179.259 96.400,179.729 96.670,179.855 97.000 C 179.982 97.330,180.426 97.600,180.843 97.600 C 181.259 97.600,181.600 97.766,181.600 97.968 C 181.600 98.171,182.140 98.455,182.800 98.600 C 183.460 98.745,184.000 99.026,184.000 99.224 C 184.000 99.422,184.450 99.698,185.000 99.836 C 185.550 99.974,186.000 100.226,186.000 100.397 C 186.000 100.567,186.402 100.812,186.893 100.940 C 188.028 101.237,188.833 100.527,187.767 100.169 C 185.398 99.376,178.737 95.756,178.467 95.116 C 178.207 94.502,177.518 94.809,177.757 95.433 M90.157 96.633 C 90.291 96.981,90.400 97.341,90.400 97.433 C 90.400 97.525,90.563 97.600,90.763 97.600 C 90.962 97.600,91.031 97.240,90.916 96.800 C 90.801 96.360,90.528 96.000,90.311 96.000 C 90.093 96.000,90.024 96.285,90.157 96.633 M31.467 96.667 C 31.079 97.055,31.140 98.000,31.553 98.000 C 31.748 98.000,32.001 97.640,32.116 97.200 C 32.322 96.414,31.991 96.142,31.467 96.667 M131.443 97.033 C 131.121 97.872,131.135 98.000,131.553 98.000 C 131.748 98.000,132.001 97.640,132.116 97.200 C 132.363 96.255,131.795 96.114,131.443 97.033 M149.908 98.590 C 150.666 100.114,151.247 100.465,150.916 99.200 C 150.801 98.760,150.548 98.400,150.353 98.400 C 150.159 98.400,150.000 98.130,150.000 97.800 C 150.000 97.470,149.824 97.200,149.608 97.200 C 149.393 97.200,149.528 97.826,149.908 98.590 M30.400 98.957 C 30.400 99.264,30.130 99.618,29.800 99.745 C 29.173 99.985,28.952 101.200,29.536 101.200 C 29.820 101.200,30.176 100.639,31.120 98.700 C 31.201 98.535,31.072 98.400,30.833 98.400 C 30.595 98.400,30.400 98.651,30.400 98.957 M130.400 99.024 C 130.400 99.367,130.220 99.536,130.000 99.400 C 129.780 99.264,129.600 99.511,129.600 99.948 C 129.600 100.385,129.330 101.013,129.000 101.343 C 128.670 101.673,128.400 102.121,128.400 102.338 C 128.400 102.555,128.210 102.797,127.977 102.874 C 127.745 102.952,127.674 103.327,127.820 103.708 C 128.064 104.344,129.126 104.400,141.043 104.400 C 155.137 104.400,155.023 104.421,153.000 102.238 C 152.450 101.644,152.000 100.988,152.000 100.779 C 152.000 100.571,151.820 100.400,151.600 100.400 C 151.035 100.400,151.103 100.919,151.787 101.824 C 153.432 103.999,153.425 104.000,140.600 104.000 C 127.216 104.000,127.869 104.201,130.000 100.738 C 131.320 98.593,131.386 98.400,130.800 98.400 C 130.580 98.400,130.400 98.681,130.400 99.024 M92.167 99.733 C 92.295 100.136,92.400 100.731,92.400 101.056 C 92.400 101.381,92.580 101.536,92.800 101.400 C 93.356 101.056,93.302 100.678,92.567 99.776 C 91.988 99.066,91.954 99.062,92.167 99.733 M117.951 100.613 C 117.593 101.376,117.381 102.000,117.479 102.000 C 117.865 102.000,118.709 100.917,118.974 100.081 C 119.415 98.692,118.669 99.079,117.951 100.613 M226.622 100.365 C 226.497 100.566,225.678 100.852,224.800 101.000 C 223.922 101.148,223.090 101.454,222.951 101.679 C 222.784 101.949,223.284 101.989,224.434 101.794 C 226.216 101.493,227.600 100.842,227.600 100.304 C 227.600 99.879,226.894 99.924,226.622 100.365 M188.631 101.151 C 188.520 101.329,189.053 101.666,189.815 101.900 C 190.981 102.258,192.154 101.939,191.540 101.431 C 191.137 101.097,188.803 100.872,188.631 101.151 M28.242 102.235 C 27.920 103.074,27.935 103.200,28.357 103.200 C 28.857 103.200,29.238 102.071,28.824 101.815 C 28.637 101.699,28.375 101.888,28.242 102.235 M192.000 102.355 C 192.000 102.600,192.540 102.800,193.200 102.800 C 193.860 102.800,194.400 102.950,194.400 103.133 C 194.400 103.317,194.625 103.494,194.900 103.527 C 195.175 103.560,196.631 103.780,198.136 104.015 C 199.640 104.250,201.080 104.357,201.336 104.253 C 201.591 104.149,201.395 104.049,200.900 104.032 C 200.405 104.014,200.000 103.820,200.000 103.600 C 200.000 103.380,199.415 103.196,198.700 103.190 C 197.985 103.185,196.680 102.990,195.800 102.758 C 192.886 101.987,192.000 101.893,192.000 102.355 M219.200 102.600 C 218.430 102.897,217.035 103.153,216.100 103.170 C 215.165 103.186,214.400 103.380,214.400 103.600 C 214.400 103.820,214.010 104.000,213.533 104.000 C 213.057 104.000,212.774 104.108,212.906 104.239 C 213.257 104.591,220.400 103.546,220.400 103.143 C 220.400 102.954,220.850 102.800,221.400 102.800 C 221.950 102.800,222.400 102.620,222.400 102.400 C 222.400 101.854,220.893 101.948,219.200 102.600 M116.539 103.111 C 116.312 103.981,116.238 103.988,105.655 104.100 L 95.000 104.214 105.853 104.307 L 116.707 104.400 116.937 103.517 C 117.064 103.032,117.078 102.545,116.968 102.435 C 116.858 102.325,116.665 102.629,116.539 103.111 M206.100 104.287 C 206.705 104.378,207.695 104.378,208.300 104.287 C 208.905 104.195,208.410 104.120,207.200 104.120 C 205.990 104.120,205.495 104.195,206.100 104.287 " stroke="none" fill="#f68e86" fill-rule="evenodd"></path><path id="path4" d="M283.300 47.065 C 282.365 47.165,281.600 47.416,281.600 47.623 C 281.600 47.830,281.165 48.000,280.633 48.000 C 280.102 48.000,279.606 48.182,279.532 48.404 C 279.458 48.626,278.591 48.888,277.605 48.986 C 276.619 49.084,275.749 49.354,275.672 49.585 C 275.595 49.816,275.369 49.905,275.170 49.782 C 274.972 49.659,274.927 49.867,275.072 50.244 C 275.283 50.794,275.164 50.884,274.467 50.702 C 273.990 50.577,273.600 50.638,273.600 50.837 C 273.600 51.037,273.223 51.200,272.763 51.200 C 272.254 51.200,271.841 51.523,271.710 52.023 C 271.566 52.574,271.286 52.765,270.860 52.601 C 270.510 52.467,270.330 52.463,270.459 52.592 C 270.747 52.880,267.191 56.562,266.022 57.188 C 265.558 57.437,265.274 57.797,265.392 57.988 C 265.511 58.179,265.336 58.607,265.004 58.939 C 264.672 59.271,264.400 59.746,264.400 59.995 C 264.400 60.244,264.222 60.337,264.005 60.203 C 263.783 60.066,263.708 60.216,263.834 60.543 C 263.973 60.906,263.744 61.227,263.229 61.391 C 262.634 61.580,262.400 61.991,262.400 62.851 C 262.400 63.509,262.237 63.946,262.037 63.823 C 261.838 63.700,261.764 63.939,261.872 64.354 C 261.981 64.770,261.874 65.231,261.635 65.378 C 261.396 65.526,261.200 65.997,261.200 66.424 C 261.200 66.851,261.034 67.200,260.832 67.200 C 260.629 67.200,260.338 68.370,260.185 69.800 C 260.032 71.230,259.748 72.400,259.553 72.400 C 259.359 72.400,259.200 73.930,259.200 75.800 C 259.200 77.670,259.359 79.200,259.553 79.200 C 259.748 79.200,260.032 80.370,260.185 81.800 C 260.338 83.230,260.629 84.400,260.832 84.400 C 261.034 84.400,261.200 84.760,261.200 85.200 C 261.200 85.640,261.401 86.000,261.647 86.000 C 261.906 86.000,262.014 86.414,261.904 86.988 C 261.801 87.531,261.870 87.881,262.058 87.764 C 262.246 87.648,262.400 87.833,262.400 88.176 C 262.400 88.519,262.535 88.801,262.700 88.803 C 263.168 88.808,264.007 90.864,263.727 91.318 C 263.584 91.549,263.675 91.601,263.938 91.438 C 264.212 91.269,264.400 91.407,264.400 91.776 C 264.400 92.119,264.586 92.400,264.813 92.400 C 265.039 92.400,265.346 92.715,265.493 93.099 C 265.641 93.483,266.179 94.215,266.688 94.725 C 267.198 95.235,267.511 95.820,267.384 96.026 C 267.257 96.232,267.406 96.400,267.715 96.400 C 268.025 96.400,268.693 96.760,269.200 97.200 C 269.707 97.640,270.275 98.000,270.461 98.000 C 270.648 98.000,270.800 98.281,270.800 98.624 C 270.800 98.967,270.980 99.136,271.200 99.000 C 271.420 98.864,271.600 98.943,271.600 99.176 C 271.600 99.409,271.870 99.600,272.200 99.600 C 272.530 99.600,272.800 99.791,272.800 100.024 C 272.800 100.257,272.980 100.336,273.200 100.200 C 273.420 100.064,273.600 100.104,273.600 100.288 C 273.600 100.473,274.489 100.969,275.575 101.390 C 276.661 101.812,277.461 102.302,277.352 102.478 C 277.242 102.655,277.714 102.800,278.400 102.800 C 279.242 102.800,279.554 102.950,279.361 103.262 C 279.157 103.594,279.477 103.660,280.491 103.495 C 281.302 103.363,282.094 103.454,282.347 103.707 C 283.085 104.445,293.536 104.407,294.280 103.663 C 294.755 103.188,295.041 103.158,295.622 103.521 C 296.205 103.885,296.491 103.852,296.977 103.366 C 297.316 103.026,297.777 102.862,298.000 103.000 C 298.223 103.138,298.510 102.978,298.638 102.645 C 298.773 102.293,299.630 101.925,300.676 101.768 C 301.900 101.584,302.307 101.387,301.940 101.155 C 301.521 100.889,301.557 100.811,302.100 100.806 C 302.485 100.803,302.800 100.640,302.800 100.443 C 302.800 100.247,303.250 99.974,303.800 99.836 C 304.350 99.698,304.800 99.408,304.800 99.192 C 304.800 98.977,304.959 98.800,305.154 98.800 C 305.348 98.800,306.712 97.630,308.185 96.200 C 309.658 94.770,311.048 93.600,311.274 93.600 C 311.500 93.600,311.587 93.343,311.467 93.029 C 311.244 92.450,312.098 91.432,312.484 91.817 C 312.599 91.932,312.810 91.301,312.951 90.413 C 313.093 89.526,313.387 88.800,313.605 88.800 C 313.822 88.800,314.000 88.530,314.000 88.200 C 314.000 87.870,314.164 87.600,314.365 87.600 C 314.566 87.600,314.858 86.835,315.014 85.900 C 315.170 84.965,315.501 84.072,315.749 83.915 C 316.369 83.522,316.381 68.089,315.762 67.685 C 315.521 67.528,315.210 66.681,315.071 65.803 C 314.932 64.925,314.635 64.145,314.409 64.070 C 314.184 63.995,314.000 63.588,314.000 63.167 C 314.000 62.745,313.840 62.400,313.643 62.400 C 313.447 62.400,313.174 61.950,313.036 61.400 C 312.898 60.850,312.608 60.400,312.392 60.400 C 312.177 60.400,312.000 60.207,312.000 59.971 C 312.000 59.736,311.728 59.271,311.396 58.939 C 311.064 58.607,310.896 58.169,311.022 57.965 C 311.148 57.761,310.970 57.487,310.628 57.355 C 310.285 57.224,310.075 57.000,310.160 56.858 C 310.246 56.716,310.065 56.368,309.758 56.084 C 309.451 55.801,309.200 55.693,309.200 55.845 C 309.200 55.998,308.840 55.707,308.400 55.200 C 307.960 54.693,307.600 54.115,307.600 53.915 C 307.600 53.716,307.420 53.664,307.200 53.800 C 306.980 53.936,306.800 53.857,306.800 53.624 C 306.800 53.391,306.519 53.200,306.176 53.200 C 305.833 53.200,305.663 53.022,305.797 52.805 C 305.937 52.578,305.777 52.511,305.421 52.647 C 305.079 52.778,304.800 52.686,304.800 52.443 C 304.800 52.199,304.530 52.000,304.200 52.000 C 303.870 52.000,303.600 51.832,303.600 51.627 C 303.600 51.422,303.237 51.139,302.794 50.998 C 302.351 50.857,302.094 50.571,302.224 50.361 C 302.353 50.152,302.311 50.006,302.130 50.037 C 301.222 50.195,300.381 49.955,300.600 49.600 C 300.743 49.368,300.352 49.200,299.666 49.200 C 298.918 49.200,298.389 48.948,298.221 48.511 C 297.993 47.918,297.900 47.904,297.548 48.411 C 297.239 48.857,297.090 48.878,296.936 48.500 C 296.825 48.225,296.313 48.000,295.800 48.000 C 295.287 48.000,294.804 47.813,294.728 47.585 C 294.579 47.138,286.195 46.757,283.300 47.065 M153.823 61.700 C 153.230 63.651,153.229 64.214,153.820 63.424 C 154.139 62.996,154.400 62.321,154.400 61.924 C 154.400 61.094,154.048 60.958,153.823 61.700 M151.802 69.597 C 151.363 70.307,151.119 73.433,151.536 73.000 C 151.748 72.780,152.023 71.835,152.149 70.900 C 152.375 69.213,152.274 68.834,151.802 69.597 M150.688 73.858 C 150.336 74.427,149.826 77.857,150.135 77.576 C 150.271 77.452,150.449 77.002,150.531 76.576 C 150.613 76.149,150.814 75.491,150.978 75.113 C 151.331 74.298,151.082 73.220,150.688 73.858 M28.977 87.800 C 28.977 94.180,29.032 96.734,29.099 93.476 C 29.167 90.217,29.166 84.997,29.099 81.876 C 29.031 78.754,28.976 81.420,28.977 87.800 M149.200 79.096 C 149.200 79.787,149.020 80.464,148.800 80.600 C 148.332 80.889,148.256 82.400,148.709 82.400 C 149.203 82.400,149.967 78.649,149.560 78.220 C 149.342 77.990,149.200 78.337,149.200 79.096 M147.361 86.201 C 147.522 87.712,148.000 87.911,148.000 86.467 C 148.000 85.770,147.832 85.200,147.627 85.200 C 147.422 85.200,147.303 85.650,147.361 86.201 M146.516 88.800 C 146.401 89.240,146.148 89.600,145.953 89.600 C 145.759 89.600,145.600 89.763,145.600 89.963 C 145.600 90.810,147.036 89.872,147.110 88.976 C 147.208 87.800,146.808 87.682,146.516 88.800 M169.200 96.800 C 169.200 97.020,169.605 97.197,170.100 97.194 C 170.828 97.189,170.885 97.114,170.400 96.800 C 169.624 96.299,169.200 96.299,169.200 96.800 M188.000 101.353 C 188.000 101.658,188.445 101.992,188.988 102.096 C 189.531 102.199,189.881 102.130,189.764 101.942 C 189.648 101.754,189.283 101.600,188.953 101.600 C 188.623 101.600,188.464 101.420,188.600 101.200 C 188.736 100.980,188.657 100.800,188.424 100.800 C 188.191 100.800,188.000 101.049,188.000 101.353 " stroke="none" fill="#ffcd00" fill-rule="evenodd"></path></g></svg>